<svg id="iconmonstr" xmlns="http://www.w3.org/2000/svg" viewBox="0 0 18.98 18.98"><defs><style>.cls-1{fill:#2cb742;}.cls-2{fill:#fff;}</style></defs><title>whatsapp</title><path class="cls-1" d="M7.23,19.43A9.62,9.62,0,0,0,12.41,21a9.49,9.49,0,1,0-9.49-9.49A9.63,9.63,0,0,0,4.6,16.87l-1,3.5Z" transform="translate(-2.92 -1.97)"/><path class="cls-2" d="M18.17,14.08c-.07-.12-.26-.19-.55-.34s-1.69-.83-2-.93-.45-.14-.64.15-.74.93-.9,1.12-.34.21-.62.07a8,8,0,0,1-2.3-1.42,8.54,8.54,0,0,1-1.58-2c-.17-.29,0-.44.12-.59a5.78,5.78,0,0,0,.43-.5,2.05,2.05,0,0,0,.29-.47.54.54,0,0,0,0-.5c-.07-.14-.64-1.55-.88-2.12s-.46-.48-.64-.49H8.37a1,1,0,0,0-.76.36,3.18,3.18,0,0,0-1,2.38,5.59,5.59,0,0,0,1.16,2.95,12.65,12.65,0,0,0,4.87,4.3c.68.3,1.22.47,1.63.61a4.06,4.06,0,0,0,1.8.11A2.94,2.94,0,0,0,18,15.43,2.37,2.37,0,0,0,18.17,14.08Z" transform="translate(-2.92 -1.97)"/></svg>